<?xml version="1.0" standalone="no"?>
<!DOCTYPE svg PUBLIC "-//W3C//DTD SVG 20010904//EN"
 "http://www.w3.org/TR/2001/REC-SVG-20010904/DTD/svg10.dtd">
<svg version="1.0" xmlns="http://www.w3.org/2000/svg"
 width="630.000000pt" height="320.000000pt" viewBox="0 0 630.000000 320.000000"
 preserveAspectRatio="xMidYMid meet">

<g transform="translate(0.000000,320.000000) scale(0.100000,-0.100000)"
fill="#000000" stroke="none">
<path d="M2246 2889 c-536 -62 -978 -442 -1112 -957 -168 -648 176 -1312 800
-1546 51 -19 137 -45 191 -57 99 -22 111 -23 960 -27 873 -3 982 0 1120 34
152 38 294 98 415 177 228 147 414 380 509 637 150 407 83 875 -173 1217 -179
241 -402 396 -681 478 -179 52 -230 55 -1130 53 -456 0 -861 -4 -899 -9z
m1797 -463 c294 -56 549 -289 637 -581 44 -145 43 -351 -1 -490 -13 -38 -23
-72 -24 -75 0 -3 -14 -30 -29 -60 -93 -181 -246 -322 -432 -400 -148 -61 -145
-61 -1080 -58 -934 4 -861 -1 -1019 65 -229 96 -418 314 -480 554 -122 470
165 943 635 1043 98 21 1685 22 1793 2z"/>
</g>
</svg>
