<?xml version="1.0" standalone="no"?>
<!DOCTYPE svg PUBLIC "-//W3C//DTD SVG 20010904//EN"
 "http://www.w3.org/TR/2001/REC-SVG-20010904/DTD/svg10.dtd">
<svg version="1.0" xmlns="http://www.w3.org/2000/svg"
 width="870.000000pt" height="470.000000pt" viewBox="0 0 870.000000 470.000000"
 preserveAspectRatio="xMidYMid meet">

<g transform="translate(0.000000,470.000000) scale(0.100000,-0.100000)"
fill="#000000" stroke="none">
<path d="M620 3124 c-177 -30 -259 -76 -313 -178 -30 -55 -32 -231 -4 -287 35
-70 136 -155 267 -223 195 -103 260 -170 245 -255 -11 -66 -45 -91 -124 -91
-38 0 -56 6 -78 24 -25 22 -28 31 -31 105 l-4 81 -155 0 -155 0 4 -92 c5 -105
30 -168 89 -226 66 -65 188 -102 336 -102 182 0 318 62 373 170 27 52 44 162
36 232 -15 150 -91 224 -386 379 -77 41 -136 94 -146 133 -24 96 75 168 166
121 40 -20 50 -43 50 -109 l0 -56 146 0 147 0 -5 88 c-5 90 -19 130 -61 178
-31 36 -97 73 -159 90 -56 14 -196 25 -238 18z"/>
<path d="M4345 3106 c-126 -29 -203 -80 -245 -162 -22 -43 -25 -62 -25 -149 0
-83 4 -107 22 -140 43 -79 130 -149 313 -248 105 -56 177 -118 188 -160 11
-40 -3 -106 -27 -130 -39 -40 -158 -29 -183 16 -7 12 -15 56 -18 97 l-5 75
-150 0 -150 0 -3 -45 c-11 -138 46 -258 151 -315 73 -41 144 -55 268 -55 205
0 320 54 381 179 26 54 37 210 19 277 -25 95 -111 173 -302 274 -145 78 -208
130 -215 180 -12 75 32 122 113 122 41 0 52 -5 75 -31 23 -26 28 -40 28 -86
l0 -55 140 0 140 0 6 26 c15 57 -21 189 -64 237 -28 32 -85 64 -143 82 -75 22
-239 28 -314 11z"/>
<path d="M7862 3105 c-129 -28 -226 -112 -254 -219 -9 -37 -13 -144 -13 -391
0 -299 3 -345 18 -384 36 -93 93 -142 209 -182 91 -32 265 -33 364 -2 132 42
203 118 224 241 6 37 9 143 8 237 l-3 170 -202 3 -203 2 0 -85 0 -85 61 0 61
0 -4 -120 c-3 -115 -4 -121 -31 -147 -24 -25 -35 -28 -92 -28 -57 0 -68 3 -92
28 l-28 27 -3 322 c-2 230 1 330 9 350 18 44 55 68 105 68 88 0 118 -31 130
-134 l7 -56 143 0 c164 0 149 -14 133 119 -15 117 -65 188 -169 235 -99 45
-254 58 -378 31z"/>
<path d="M1515 3078 c-8 -26 -213 -1143 -210 -1148 2 -3 72 -3 156 0 l154 5
37 250 c53 352 98 648 110 730 16 114 8 153 88 -405 33 -228 66 -451 73 -495
l12 -80 153 -3 c141 -2 152 -1 152 16 0 9 -18 112 -39 227 -22 116 -47 248
-55 295 -8 47 -22 121 -30 165 -8 44 -29 157 -46 250 -17 94 -33 178 -36 188
-5 16 -26 17 -260 17 -195 0 -256 -3 -259 -12z"/>
<path d="M2506 2958 c-6 -140 -26 -1021 -23 -1024 4 -4 69 -6 175 -5 l112 1 1
278 c1 152 5 387 8 522 l6 245 23 -125 c13 -69 30 -156 37 -195 17 -83 80
-427 101 -540 7 -44 19 -104 25 -132 l10 -53 147 0 147 0 59 313 c32 171 75
403 96 515 20 111 40 205 44 209 3 3 6 -185 6 -418 0 -233 3 -468 7 -521 l6
-98 140 0 140 0 -7 353 c-3 193 -9 454 -13 580 l-6 227 -236 -2 -236 -3 -70
-442 c-39 -244 -74 -445 -76 -447 -3 -3 -22 104 -43 237 -40 250 -91 568 -101
625 l-6 32 -233 0 -234 0 -6 -132z"/>
<path d="M5170 2618 c1 -425 2 -478 18 -524 23 -66 55 -105 117 -142 75 -45
135 -57 275 -57 104 0 136 4 191 23 81 28 141 77 177 146 l27 51 3 488 3 487
-146 0 -145 0 0 -449 c0 -294 -4 -459 -11 -479 -15 -42 -49 -62 -108 -62 -38
0 -56 6 -78 24 l-28 24 -3 471 -3 471 -144 0 -145 0 0 -472z"/>
<path d="M6310 2515 l0 -575 141 0 140 0 -6 448 c-3 246 -8 457 -11 470 -2 12
-1 22 4 22 4 0 20 -42 35 -92 16 -51 73 -241 129 -423 55 -181 107 -351 114
-377 l15 -48 204 0 205 0 0 575 0 575 -141 0 -140 0 5 -462 c3 -268 2 -452 -3
-438 -5 14 -33 111 -64 215 -30 105 -83 285 -117 400 -34 116 -67 227 -72 248
l-10 37 -214 0 -214 0 0 -575z"/>
</g>
</svg>
