<?xml version="1.0" standalone="no"?>
<!DOCTYPE svg PUBLIC "-//W3C//DTD SVG 20010904//EN"
 "http://www.w3.org/TR/2001/REC-SVG-20010904/DTD/svg10.dtd">
<svg version="1.0" xmlns="http://www.w3.org/2000/svg"
 width="1200.000000pt" height="627.000000pt" viewBox="0 0 1200.000000 627.000000"
 preserveAspectRatio="xMidYMid meet">

<g transform="translate(0.000000,627.000000) scale(0.100000,-0.100000)"
fill="#000000" stroke="none">
<path d="M6035 3517 c-3 -7 -4 -136 -3 -287 l3 -275 30 0 30 0 5 140 c3 87 10
149 18 162 29 52 119 69 165 33 37 -29 47 -76 47 -217 l0 -123 30 0 30 0 0
148 c0 134 -2 152 -22 192 -30 58 -76 83 -145 77 -37 -2 -62 -11 -87 -31 l-36
-27 0 110 0 111 -30 0 c-17 0 -33 -6 -35 -13z"/>
<path d="M7884 3520 c-35 -14 -63 -59 -70 -111 -6 -43 -9 -49 -30 -49 -20 0
-24 -5 -24 -30 0 -26 4 -30 28 -30 l27 0 0 -172 0 -173 30 0 30 0 3 172 2 172
63 3 c59 3 62 4 65 31 l3 27 -65 0 -66 0 0 38 c0 52 23 72 83 72 43 0 47 2 47
24 0 13 -7 27 -16 30 -22 8 -85 6 -110 -4z"/>
<path d="M7590 3479 c0 -39 1 -40 33 -36 29 3 32 7 35 40 3 36 3 37 -32 37
-35 0 -36 -1 -36 -41z"/>
<path d="M8503 3513 c9 -2 23 -2 30 0 6 3 -1 5 -18 5 -16 0 -22 -2 -12 -5z"/>
<path d="M3611 3488 c-64 -33 -86 -68 -86 -135 0 -50 3 -57 36 -88 22 -20 60
-40 95 -50 139 -41 155 -48 175 -73 41 -53 4 -120 -73 -131 -62 -10 -111 1
-170 38 l-52 33 -17 -24 c-21 -28 -16 -36 53 -73 68 -37 176 -46 243 -20 59
22 95 73 95 133 0 87 -45 129 -171 160 -121 31 -149 51 -149 107 0 37 10 55
41 70 45 24 118 19 178 -12 52 -25 54 -26 68 -8 19 27 13 36 -37 64 -65 36
-170 40 -229 9z"/>
<path d="M6522 3291 l3 -209 30 -44 c42 -60 104 -89 189 -89 111 0 184 47 215
140 7 21 11 108 11 222 l0 189 -29 0 -29 0 -4 -192 c-3 -215 -11 -243 -75
-281 -46 -26 -133 -25 -178 3 -64 39 -70 62 -73 278 l-4 192 -29 0 -30 0 3
-209z"/>
<path d="M8490 3458 c0 -24 3 -29 9 -19 7 11 13 12 23 4 10 -9 13 -5 15 18 2
25 -1 29 -22 29 -22 0 -25 -5 -25 -32z m35 12 c-3 -5 -10 -10 -16 -10 -5 0 -9
5 -9 10 0 6 7 10 16 10 8 0 12 -4 9 -10z"/>
<path d="M8503 3403 c9 -2 23 -2 30 0 6 3 -1 5 -18 5 -16 0 -22 -2 -12 -5z"/>
<path d="M4114 3351 c-126 -58 -153 -244 -51 -349 68 -70 199 -75 273 -10 31
27 33 33 20 46 -13 13 -21 12 -67 -12 -60 -29 -94 -32 -144 -12 -35 15 -75 67
-75 98 0 16 16 18 158 20 l157 3 -3 45 c-11 143 -145 229 -268 171z m151 -63
c25 -20 55 -73 55 -98 0 -6 -46 -10 -125 -10 -123 0 -125 0 -125 23 0 28 32
77 62 93 37 21 101 17 133 -8z"/>
<path d="M4557 3356 c-58 -16 -67 -25 -57 -53 8 -21 10 -21 56 -7 57 17 90 18
133 3 32 -11 61 -52 61 -87 0 -18 -4 -19 -42 -10 -93 21 -206 -10 -233 -63
-18 -34 -19 -89 -3 -123 32 -73 169 -92 249 -35 l28 19 3 -22 c2 -18 9 -23 33
-23 l30 0 -1 151 c0 169 -10 201 -71 237 -42 24 -126 30 -186 13z m180 -213
c18 -7 17 -64 -3 -91 -34 -49 -116 -67 -174 -37 -59 31 -47 108 20 132 32 12
122 9 157 -4z"/>
<path d="M5104 3359 c-18 -5 -48 -27 -68 -49 l-36 -40 0 45 c0 43 -1 45 -30
45 l-30 0 0 -205 0 -205 30 0 30 0 0 98 c0 53 5 115 11 137 15 55 66 103 118
111 40 6 42 8 39 38 -3 34 -16 39 -64 25z"/>
<path d="M7245 3361 c-11 -5 -32 -21 -47 -36 l-28 -28 0 32 c0 28 -3 31 -30
31 l-30 0 0 -205 0 -205 30 0 30 0 0 135 c0 151 9 184 60 210 47 24 95 19 132
-14 l33 -29 3 -151 3 -151 30 0 29 0 0 153 c0 167 -9 201 -62 240 -30 22 -120
33 -153 18z"/>
<path d="M7592 3158 l3 -203 30 0 30 0 3 203 2 202 -35 0 -35 0 2 -202z"/>
<path d="M8040 3356 c0 -2 40 -92 90 -201 88 -193 89 -197 74 -226 -18 -36
-51 -50 -97 -42 -30 4 -36 2 -42 -17 -9 -30 -3 -33 64 -38 56 -4 61 -2 95 29
30 28 52 75 130 267 l95 233 -36 -3 -35 -3 -60 -157 c-33 -87 -63 -158 -67
-158 -3 0 -37 72 -75 160 l-68 160 -34 0 c-19 0 -34 -2 -34 -4z"/>
<path d="M5457 3324 c-16 -16 10 -24 79 -24 59 0 74 3 74 15 0 12 -15 15 -73
15 -41 0 -77 -3 -80 -6z"/>
<path d="M5467 3243 c-20 -19 6 -23 143 -23 136 0 177 7 134 24 -21 8 -269 8
-277 -1z"/>
<path d="M5457 3154 c-18 -18 15 -24 129 -24 104 0 124 2 124 15 0 13 -20 15
-123 15 -68 0 -127 -3 -130 -6z"/>
</g>
</svg>
